<svg width="20" height="20" viewBox="0 0 20 20" fill="none" xmlns="http://www.w3.org/2000/svg">
<path d="M8.125 3.4375C8.125 2.94022 8.32254 2.46331 8.67418 2.11167C9.02581 1.76004 9.50272 1.5625 10 1.5625C10.4973 1.5625 10.9742 1.76004 11.3258 2.11167C11.6775 2.46331 11.875 2.94022 11.875 3.4375C12.9516 3.94659 13.8694 4.73906 14.53 5.72997C15.1907 6.72088 15.5692 7.87288 15.625 9.0625V11.875C15.6956 12.4578 15.902 13.016 16.2276 13.5045C16.5533 13.993 16.9891 14.3982 17.5 14.6875H2.5C3.01088 14.3982 3.4467 13.993 3.77236 13.5045C4.09803 13.016 4.30445 12.4578 4.375 11.875V9.0625C4.43084 7.87288 4.80934 6.72088 5.46995 5.72997C6.13056 4.73906 7.04837 3.94659 8.125 3.4375Z" fill="#0E2F31" stroke="#0E2F31" stroke-width="2" stroke-linecap="round" stroke-linejoin="round"/>
<path d="M7.1875 14.6875V15.625C7.1875 16.3709 7.48382 17.0863 8.01126 17.6137C8.53871 18.1412 9.25408 18.4375 10 18.4375C10.7459 18.4375 11.4613 18.1412 11.9887 17.6137C12.5162 17.0863 12.8125 16.3709 12.8125 15.625V14.6875" stroke="#0E2F31" stroke-width="2" stroke-linecap="round" stroke-linejoin="round"/>
</svg>
