<svg width="20" height="20" viewBox="0 0 20 20" fill="none" xmlns="http://www.w3.org/2000/svg">
<path fill-rule="evenodd" clip-rule="evenodd" d="M1.66699 9.99984C1.66699 5.408 5.40849 1.6665 10.0003 1.6665C14.5922 1.6665 18.3337 5.408 18.3337 9.99984C18.3337 14.5917 14.5922 18.3332 10.0003 18.3332C8.72482 18.3332 7.44931 18.0781 6.34386 17.4828H3.1976C2.77243 17.4828 2.51733 17.1427 2.51733 16.8026V13.6563C1.92209 12.5509 1.66699 11.2753 1.66699 9.99984ZM8.10051 9.99996C8.10051 10.5244 7.67533 10.9496 7.15084 10.9496C6.62635 10.9496 6.20117 10.5244 6.20117 9.99996C6.20117 9.47547 6.62635 9.05029 7.15084 9.05029C7.67533 9.05029 8.10051 9.47547 8.10051 9.99996ZM10.9495 9.99996C10.9495 10.5244 10.5243 10.9496 9.99984 10.9496C9.47536 10.9496 9.05018 10.5244 9.05018 9.99996C9.05018 9.47547 9.47536 9.05029 9.99984 9.05029C10.5243 9.05029 10.9495 9.47547 10.9495 9.99996ZM12.8488 10.9496C13.3733 10.9496 13.7985 10.5244 13.7985 9.99996C13.7985 9.47547 13.3733 9.05029 12.8488 9.05029C12.3244 9.05029 11.8992 9.47547 11.8992 9.99996C11.8992 10.5244 12.3244 10.9496 12.8488 10.9496Z" fill="#0E2F31"/>
</svg>
