<svg width="20" height="20" viewBox="0 0 20 20" fill="none" xmlns="http://www.w3.org/2000/svg">
<path d="M8.58108 3.81165L8.96316 4.67132C9.076 4.92343 9.10967 5.20386 9.05973 5.47552C9.00978 5.74719 8.87856 5.9973 8.68342 6.19279L8.11714 6.75908C7.89782 6.98447 7.76309 7.27871 7.73574 7.592C7.70839 7.9053 7.7901 8.21842 7.96703 8.47841L8.36958 9.07881C8.96058 9.98664 9.72587 10.7682 10.6211 11.3781L11.2215 11.7806C11.4837 11.955 11.7982 12.0332 12.1116 12.0021C12.425 11.971 12.7179 11.8325 12.9408 11.6101L13.5276 11.0233C13.7181 10.8187 13.9669 10.6776 14.2402 10.6191C14.5135 10.5605 14.7983 10.5873 15.0559 10.6958L15.9155 11.0915C16.3173 11.2735 16.669 11.5502 16.9405 11.8979C17.212 12.2456 17.3951 12.6539 17.4743 13.0878C17.5534 13.5218 17.5262 13.9684 17.3949 14.3896C17.2637 14.8107 17.0323 15.1937 16.7206 15.5058L16.3249 15.9016C15.3517 16.8746 14.0468 17.444 12.6716 17.4959C11.2964 17.5477 9.95234 17.0782 8.90857 16.1813L8.86764 16.154C6.95623 14.5209 5.17467 12.7416 3.53907 10.8323L3.49813 10.7913C2.60122 9.74756 2.1317 8.40351 2.18357 7.0283C2.23544 5.65309 2.80488 4.34823 3.77787 3.37499L4.15994 2.99974C4.47249 2.68681 4.85642 2.45452 5.27866 2.32289C5.70091 2.19126 6.14882 2.16422 6.58383 2.24411C7.01884 2.32399 7.42792 2.50841 7.77584 2.78148C8.12377 3.05455 8.40011 3.40808 8.58108 3.81165Z" fill="#0E2F31"/>
</svg>
