<svg width="24" height="24" viewBox="0 0 24 24" fill="none" xmlns="http://www.w3.org/2000/svg">
<path d="M8.12921 12.7642L13.7892 18.4142C13.8822 18.508 13.9928 18.5823 14.1146 18.6331C14.2365 18.6839 14.3672 18.71 14.4992 18.71C14.6312 18.71 14.7619 18.6839 14.8838 18.6331C15.0056 18.5823 15.1162 18.508 15.2092 18.4142C15.3955 18.2269 15.5 17.9734 15.5 17.7092C15.5 17.445 15.3955 17.1916 15.2092 17.0042L10.2592 12.0042L15.2092 7.05422C15.3955 6.86686 15.5 6.61341 15.5 6.34922C15.5 6.08504 15.3955 5.83159 15.2092 5.64422C15.1166 5.54974 15.0061 5.47457 14.8843 5.42307C14.7624 5.37157 14.6315 5.34477 14.4992 5.34422C14.3669 5.34477 14.236 5.37157 14.1141 5.42307C13.9923 5.47457 13.8818 5.54974 13.7892 5.64422L8.12921 11.2942C8.0277 11.3879 7.94669 11.5015 7.89129 11.628C7.83588 11.7545 7.80727 11.8911 7.80727 12.0292C7.80727 12.1673 7.83588 12.3039 7.89129 12.4304C7.94669 12.5569 8.0277 12.6706 8.12921 12.7642Z" fill="#222020"/>
</svg>
