<svg width="145" height="145" viewBox="0 0 145 145" fill="none" xmlns="http://www.w3.org/2000/svg">
<mask id="mask0_995_3245" style="mask-type:alpha" maskUnits="userSpaceOnUse" x="0" y="0" width="145" height="145">
<rect width="145" height="145" rx="32" fill="#79FF8F"/>
</mask>
<g mask="url(#mask0_995_3245)">
<rect width="145" height="145" transform="translate(0 0.5)" fill="url(#paint0_linear_995_3245)"/>
<path fill-rule="evenodd" clip-rule="evenodd" d="M34.0005 100.934L22.0498 59.6049C22.0496 59.604 22.0493 59.6032 22.0491 59.6023C21.3645 57.2371 20.8081 54.9398 20.8081 52.1115C20.8081 42.071 29.1917 36.1519 37.6528 36.1519C41.6006 36.1519 45.5361 37.3965 48.7024 40.2874C51.7257 43.0479 53.3137 46.6361 54.0614 50.096L54.4402 51.7465L54.7278 50.5632C55.5973 46.6779 57.5075 42.8824 60.9347 40.0881C64.4098 37.2548 68.5851 36.1519 72.666 36.1519C76.7375 36.1519 80.887 37.2797 84.3314 40.1135C87.7182 42.8999 89.6224 46.6762 90.492 50.5564L90.8252 51.9192L91.2651 50.0085C91.9929 46.5544 93.5823 43.0024 96.5777 40.2704C99.7141 37.4098 103.626 36.1519 107.569 36.1519C111.698 36.1519 115.861 37.4678 119.107 40.3805C122.424 43.3572 124.247 47.5459 124.247 52.0562C124.247 54.8415 123.684 57.1483 123.007 59.4886C123.007 59.4905 123.006 59.4924 123.006 59.4942L111.073 100.817C111.07 100.825 111.068 100.834 111.065 100.842C109.959 104.739 108.048 108.778 104.452 111.767C100.714 114.874 96.2887 115.917 92.0256 115.917C87.8241 115.917 83.2413 115.01 79.3743 111.85C75.5944 108.762 73.7414 104.532 72.7881 100.464L72.4296 99.0912L72.0421 100.589C71.0693 104.649 69.1761 108.804 65.4498 111.846C61.6449 114.952 57.1345 115.917 52.9192 115.917C48.6864 115.917 44.2664 114.902 40.5314 111.764C36.9672 108.769 35.1117 104.734 34.0044 100.948L34.0005 100.934Z" fill="white"/>
</g>
<defs>
<linearGradient id="paint0_linear_995_3245" x1="72.5" y1="0" x2="72.5" y2="145" gradientUnits="userSpaceOnUse">
<stop stop-color="#79FF8F"/>
<stop offset="1" stop-color="#02C822"/>
</linearGradient>
</defs>
</svg>
