<svg width="24" height="24" viewBox="0 0 24 24" fill="none" xmlns="http://www.w3.org/2000/svg">
<path d="M5.39062 12.3594C5.39062 11.8047 5.85156 11.3516 6.39844 11.3516H10.9922V6.75781C10.9922 6.21094 11.4453 5.75 12 5.75C12.5547 5.75 13.0078 6.21094 13.0078 6.75781V11.3516H17.6016C18.1562 11.3516 18.6094 11.8047 18.6094 12.3594C18.6094 12.9141 18.1562 13.3672 17.6016 13.3672H13.0078V17.9609C13.0078 18.5156 12.5547 18.9688 12 18.9688C11.4453 18.9688 10.9922 18.5156 10.9922 17.9609V13.3672H6.39844C5.85156 13.3672 5.39062 12.9141 5.39062 12.3594Z" fill="#1A1A1A"/>
</svg>
